<svg xmlns="http://www.w3.org/2000/svg" width="766" height="128" viewBox="0 0 766 128">
  <g fill="none" fill-rule="evenodd">
    <g transform="translate(152 26)">
      <path fill="#171928" d="M484.03607 26.7271517L484.03607 24.5012693C484.03607 23.3734833 484.421733 22.4089439 485.19307 21.6076223 485.964407 20.8063006 486.913731 20.4056458 488.04107 20.4056458 489.168409 20.4056458 490.132566 20.8063006 490.93357 21.6076223 491.734574 22.4089439 492.13507 23.3734833 492.13507 24.5012693L492.13507 64.3000458C492.13507 71.8384051 490.325421 77.6108022 486.70607 81.6174105 483.086718 85.6240188 477.92477 87.6272929 471.22007 87.6272929 464.100034 87.6272929 457.751431 86.0840299 452.17407 82.9974576 451.106064 82.3445288 450.57207 81.4393457 450.57207 80.2818811 450.57207 79.1244165 450.913233 78.1598771 451.59557 77.388234 452.277907 76.616591 452.989899 76.2307752 453.73157 76.2307752 454.47324 76.2307752 455.140733 76.3494877 455.73407 76.5869164 460.243426 78.8424884 465.138377 79.9702576 470.41907 79.9702576 479.497115 79.9702576 484.03607 75.1327216 484.03607 65.4575046L484.03607 59.4921399C479.823382 64.003284 474.750433 66.2588223 468.81707 66.2588223 463.180375 66.2588223 458.344757 64.3594217 454.31007 60.5605634 449.622713 56.2274908 447.27907 50.4105764 447.27907 43.1096458 447.27907 35.8087152 449.622713 29.9918008 454.31007 25.6587281 458.344757 21.8598699 463.254541 19.9604693 469.03957 19.9604693 474.824599 19.9604693 479.823382 22.2160076 484.03607 26.7271517zM484.03607 33.9390105C482.374728 32.2176529 480.47608 30.6892289 478.34007 29.3536929 476.204059 28.0181568 473.830749 27.3503987 471.22007 27.3503987 468.60939 27.3503987 466.384412 27.6768582 464.54507 28.329787 462.705727 28.9827157 461.103743 29.932416 459.73907 31.1789164 456.831722 33.9093457 455.37807 37.8862158 455.37807 43.1096458 455.37807 50.7667194 458.433706 55.6932897 464.54507 57.8895046 466.384412 58.5424334 468.60939 58.8688929 471.22007 58.8688929 475.551425 58.8688929 479.823382 56.6727109 484.03607 52.2802811L484.03607 33.9390105zM562.386512 22.6687992C567.370537 20.5319415 572.532485 19.4635286 577.872512 19.4635286 583.924542 19.4635286 588.611828 21.303573 591.934512 24.9837169 594.901193 28.1890035 596.384512 32.1955516 596.384512 37.0034816L596.384512 62.2004698C596.384512 63.3282558 595.984016 64.2779561 595.183012 65.0495992 594.382008 65.8212423 593.417851 66.207058 592.290512 66.207058 591.163173 66.207058 590.213849 65.8212423 589.442512 65.0495992 588.671174 64.2779561 588.285512 63.3282558 588.285512 62.2004698L588.285512 59.8855522C586.683504 61.5475526 584.532692 63.0908156 581.833012 64.5153874 579.133331 65.9399593 575.706866 66.6522345 571.553512 66.6522345 567.459491 66.6522345 564.047859 65.4651091 561.318512 63.0908227 558.470497 60.597822 557.046512 57.3332272 557.046512 53.2969404 557.046512 48.9045106 558.707828 45.461847 562.030512 42.9688463 565.649863 40.2384169 570.811811 38.8732227 577.516512 38.8732227L588.285512 38.8732227 588.285512 38.1609404C588.285512 34.1840107 587.306521 31.3497488 585.348512 29.6580698 583.390502 27.9663908 580.394198 27.1205639 576.359512 27.1205639 572.918161 27.1205639 568.972534 27.8328391 564.522512 29.257411 564.047843 29.3761253 563.513848 29.4354816 562.920512 29.4354816 562.327175 29.4354816 561.704182 29.1238611 561.051512 28.500611 560.398842 27.8773608 560.072512 26.9128214 560.072512 25.6069639 560.072512 24.3011064 560.843837 23.321728 562.386512 22.6687992zM565.145512 52.4065874C565.145512 57.1551602 568.290147 59.529411 574.579512 59.529411 577.368192 59.529411 579.964 58.8468139 582.367012 57.4815992 584.770024 56.1163845 586.742837 54.5731215 588.285512 52.8517639L588.285512 45.3727992 578.584512 45.3727992C574.371824 45.3727992 571.078857 45.9070056 568.705512 46.9754345 566.332166 48.0438634 565.145512 49.8542296 565.145512 52.4065874zM546.844198 58.7560478C547.526534 58.4889406 548.268194 58.355389 549.069198 58.355389 549.870202 58.355389 550.597028 58.6521704 551.249698 59.245742 551.902368 59.8393136 552.228698 60.7296576 552.228698 61.9168008 552.228698 63.103944 551.63537 63.9646099 550.448698 64.4988243 547.897352 65.6859675 545.716873 66.2795302 543.907198 66.2795302 542.097522 66.2795302 540.451038 66.1904958 538.967698 66.0124243 537.484357 65.8343528 536.060371 65.3298246 534.695698 64.4988243 531.432348 62.5993952 529.800698 59.2754441 529.800698 54.5268714L529.800698 26.9259302 523.481698 26.9259302C522.354359 26.9259302 521.790698 26.3620456 521.790698 25.2342596 521.790698 24.7000452 522.057695 24.1955169 522.591698 23.7206596L534.695698 11.8789655C535.2297 11.3447511 535.734029 11.0776478 536.208698 11.0776478 536.683367 11.0776478 537.083863 11.2557167 537.410198 11.6118596 537.736533 11.9680026 537.899698 12.3834965 537.899698 12.8583537L537.899698 19.9811773 547.956698 19.9811773C548.965369 19.9811773 549.796028 20.3076367 550.448698 20.9605655 551.101368 21.6134943 551.427698 22.444482 551.427698 23.4535537 551.427698 24.4626254 551.101368 25.2936132 550.448698 25.946542 549.796028 26.5994707 548.965369 26.9259302 547.956698 26.9259302L537.899698 26.9259302 537.899698 53.814589C537.899698 56.0701611 538.582024 57.6134241 539.946698 58.4444243 540.718035 58.9192816 541.889856 59.1567067 543.462198 59.1567067 545.034539 59.1567067 546.161861 59.0231551 546.844198 58.7560478zM505.389558 21.1386345C506.160895 20.3669914 507.125052 19.9811757 508.282058 19.9811757 509.439064 19.9811757 510.403221 20.3669914 511.174558 21.1386345 511.945895 21.9102776 512.331558 22.889656 512.331558 24.0767992L512.331558 62.2729404C512.331558 63.4007264 511.945895 64.3504267 511.174558 65.1220698 510.403221 65.8937129 509.439064 66.2795286 508.282058 66.2795286 507.125052 66.2795286 506.160895 65.8937129 505.389558 65.1220698 504.618221 64.3504267 504.232558 63.4007264 504.232558 62.2729404L504.232558 24.0767992C504.232558 22.889656 504.618221 21.9102776 505.389558 21.1386345zM512.809674 6.01505882C512.809674 7.26155917 512.364679 8.32997202 511.474674 9.22032941 510.58467 10.1106868 509.516681 10.5558588 508.270674 10.5558588L507.736674 10.5558588C506.490668 10.5558588 505.422679 10.1106868 504.532674 9.22032941 503.64267 8.32997202 503.197674 7.26155917 503.197674 6.01505882L503.197674 5.65891765C503.197674 4.4124173 503.64267 3.34400445 504.532674 2.45364706 505.422679 1.56328967 506.490668 1.11811765 507.736674 1.11811765L508.270674 1.11811765C509.516681 1.11811765 510.58467 1.56328967 511.474674 2.45364706 512.364679 3.34400445 512.809674 4.4124173 512.809674 5.65891765L512.809674 6.01505882zM241.160116 26.9424933C235.938757 26.9424933 231.073472 29.7915942 226.564116 35.4898816L226.564116 62.2004698C226.564116 63.3282558 226.16362 64.2779561 225.362616 65.0495992 224.561612 65.8212423 223.597455 66.207058 222.470116 66.207058 221.342777 66.207058 220.393453 65.8212423 219.622116 65.0495992 218.850779 64.2779561 218.465116 63.3282558 218.465116 62.2004698L218.465116 24.0043286C218.465116 22.8171854 218.850779 21.837807 219.622116 21.0661639 220.393453 20.2945208 221.342777 19.9087051 222.470116 19.9087051 223.597455 19.9087051 224.561612 20.2945208 225.362616 21.0661639 226.16362 21.837807 226.564116 22.8171854 226.564116 24.0043286L226.564116 27.6547757C228.937461 25.161775 230.984441 23.410765 232.705116 22.4016933 236.087133 20.4429071 239.305934 19.4635286 242.361616 19.4635286 245.417298 19.4635286 247.924106 19.9235397 249.882116 20.8435757 251.840126 21.7636117 253.501443 23.0249324 254.866116 24.6275757 257.654797 27.8922195 259.049116 31.987802 259.049116 36.9144463L259.049116 62.2004698C259.049116 63.3282558 258.64862 64.2779561 257.847616 65.0495992 257.046612 65.8212423 256.082455 66.207058 254.955116 66.207058 253.827777 66.207058 252.878453 65.8212423 252.107116 65.0495992 251.335779 64.2779561 250.950116 63.3282558 250.950116 62.2004698L250.950116 37.8047992C250.950116 34.4214411 250.193624 31.7652481 248.680616 29.8361404 247.167609 27.9070327 244.6608 26.9424933 241.160116 26.9424933zM289.123267 58.7560478C289.805604 58.4889406 290.547263 58.355389 291.348267 58.355389 292.149271 58.355389 292.876098 58.6521704 293.528767 59.245742 294.181437 59.8393136 294.507767 60.7296576 294.507767 61.9168008 294.507767 63.103944 293.91444 63.9646099 292.727767 64.4988243 290.176421 65.6859675 287.995943 66.2795302 286.186267 66.2795302 284.376592 66.2795302 282.730108 66.1904958 281.246767 66.0124243 279.763427 65.8343528 278.339441 65.3298246 276.974767 64.4988243 273.711418 62.5993952 272.079767 59.2754441 272.079767 54.5268714L272.079767 26.9259302 265.760767 26.9259302C264.633428 26.9259302 264.069767 26.3620456 264.069767 25.2342596 264.069767 24.7000452 264.336765 24.1955169 264.870767 23.7206596L276.974767 11.8789655C277.50877 11.3447511 278.013098 11.0776478 278.487767 11.0776478 278.962436 11.0776478 279.362932 11.2557167 279.689267 11.6118596 280.015602 11.9680026 280.178767 12.3834965 280.178767 12.8583537L280.178767 19.9811773 290.235767 19.9811773C291.244439 19.9811773 292.075098 20.3076367 292.727767 20.9605655 293.380437 21.6134943 293.706767 22.444482 293.706767 23.4535537 293.706767 24.4626254 293.380437 25.2936132 292.727767 25.946542 292.075098 26.5994707 291.244439 26.9259302 290.235767 26.9259302L280.178767 26.9259302 280.178767 53.814589C280.178767 56.0701611 280.861094 57.6134241 282.225767 58.4444243 282.997105 58.9192816 284.168926 59.1567067 285.741267 59.1567067 287.313609 59.1567067 288.440931 59.0231551 289.123267 58.7560478zM324.020581 27.0356722C318.799222 27.0356722 313.933937 29.8847731 309.424581 35.5830604L309.424581 62.2936486C309.424581 63.4214347 309.024085 64.371135 308.223081 65.1427781 307.422077 65.9144211 306.45792 66.3002369 305.330581 66.3002369 304.203242 66.3002369 303.253919 65.9144211 302.482581 65.1427781 301.711244 64.371135 301.325581 63.4214347 301.325581 62.2936486L301.325581 4.50974276C301.325581 3.32259957 301.711244 2.34322112 302.482581 1.57157805 303.253919.799934976 304.203242.414119227 305.330581.414119227 306.45792.414119227 307.422077.799934976 308.223081 1.57157805 309.024085 2.34322112 309.424581 3.32259957 309.424581 4.50974276L309.424581 27.7479545C311.797927 25.2549538 313.844906 23.5039439 315.565581 22.4948722 318.947598 20.5360859 322.166399 19.5567075 325.222081 19.5567075 328.277763 19.5567075 330.784572 20.0167185 332.742581 20.9367545 334.700591 21.8567905 336.361908 23.1181112 337.726581 24.7207545 340.515262 27.9853983 341.909581 32.0809809 341.909581 37.0076251L341.909581 62.2936486C341.909581 63.4214347 341.509085 64.371135 340.708081 65.1427781 339.907077 65.9144211 338.94292 66.3002369 337.815581 66.3002369 336.688242 66.3002369 335.738919 65.9144211 334.967581 65.1427781 334.196244 64.371135 333.810581 63.4214347 333.810581 62.2936486L333.810581 37.8979781C333.810581 34.51462 333.054089 31.8584269 331.541081 29.9293192 330.028074 28.0002115 327.521266 27.0356722 324.020581 27.0356722zM156.914977 20.5723294C157.686314 21.3736511 158.071977 22.2046388 158.071977 23.0653176 158.071977 23.9259965 157.982978 24.5640764 157.804977 24.9795765L133.507977 83.3867294C132.73664 85.2268014 131.490652 86.1468235 129.769977 86.1468235 128.701971 86.1468235 127.797147 85.7610078 127.055477 84.9893647 126.313806 84.2177216 125.942977 83.4460901 125.942977 82.6744471 125.942977 81.902804 126.031976 81.2795632 126.209977 80.8047059L131.994977 65.9358118 115.262977 25.1576471C115.025642 24.5640755 114.906977 23.8518002 114.906977 23.0208 114.906977 22.1897998 115.29264 21.3736511 116.063977 20.5723294 116.835314 19.7710078 117.695639 19.3703529 118.644977 19.3703529 120.602987 19.3703529 121.937973 20.2013407 122.649977 21.8633412L136.355977 55.8748235 150.328977 22.0414118C151.100314 20.260697 152.346301 19.3703529 154.066977 19.3703529 155.194316 19.3703529 156.14364 19.7710078 156.914977 20.5723294zM174.099 27.9156717C178.252354 22.3360987 182.909974 19.546354 188.072 19.546354L188.517 19.546354C189.644339 19.546354 190.57883 19.9321698 191.3205 20.7038129 192.06217 21.4754559 192.433 22.4399953 192.433 23.5974599 192.433 24.7549245 192.047337 25.6749467 191.276 26.357554 190.504663 27.0401614 189.525673 27.3814599 188.339 27.3814599L187.894 27.3814599C184.927318 27.3814599 182.272178 28.1085742 179.9285 29.5628246 177.584822 31.017075 175.641674 32.9016366 174.099 35.2165658L174.099 62.2832952C174.099 63.4110813 173.698504 64.3607816 172.8975 65.1324246 172.096496 65.9040677 171.132339 66.2898835 170.005 66.2898835 168.877661 66.2898835 167.928337 65.9040677 167.157 65.1324246 166.385663 64.3607816 166 63.4110813 166 62.2832952L166 24.087154C166 22.959368 166.385663 21.9948286 167.157 21.193507 167.928337 20.3921853 168.877661 19.9915305 170.005 19.9915305 171.132339 19.9915305 172.096496 20.3921853 172.8975 21.193507 173.698504 21.9948286 174.099 22.959368 174.099 24.087154L174.099 27.9156717zM430.843047 21.1386345C431.614384 20.3669914 432.578541 19.9811757 433.735547 19.9811757 434.892552 19.9811757 435.856709 20.3669914 436.628047 21.1386345 437.399384 21.9102776 437.785047 22.889656 437.785047 24.0767992L437.785047 62.2729404C437.785047 63.4007264 437.399384 64.3504267 436.628047 65.1220698 435.856709 65.8937129 434.892552 66.2795286 433.735547 66.2795286 432.578541 66.2795286 431.614384 65.8937129 430.843047 65.1220698 430.071709 64.3504267 429.686047 63.4007264 429.686047 62.2729404L429.686047 24.0767992C429.686047 22.889656 430.071709 21.9102776 430.843047 21.1386345zM436.929214 6.01505882C436.929214 7.26155917 436.484218 8.32997202 435.594214 9.22032941 434.704209 10.1106868 433.63622 10.5558588 432.390214 10.5558588L431.856214 10.5558588C430.610207 10.5558588 429.542218 10.1106868 428.652214 9.22032941 427.762209 8.32997202 427.317214 7.26155917 427.317214 6.01505882L427.317214 5.65891765C427.317214 4.4124173 427.762209 3.34400445 428.652214 2.45364706 429.542218 1.56328967 430.610207 1.11811765 431.856214 1.11811765L432.390214 1.11811765C433.63622 1.11811765 434.704209 1.56328967 435.594214 2.45364706 436.484218 3.34400445 436.929214 4.4124173 436.929214 5.65891765L436.929214 6.01505882zM408.524442 59.978731C404.133753 64.4898751 399.060804 66.7454133 393.305442 66.7454133 387.609413 66.7454133 382.684796 64.7273002 378.531442 60.6910133 374.022086 56.2392264 371.767442 50.3926339 371.767442 43.1510604 371.767442 36.0282013 374.022086 30.2112869 378.531442 25.7001428 382.625462 21.6044987 387.55008 19.5567075 393.305442 19.5567075 399.060804 19.5567075 404.133753 21.8122457 408.524442 26.3233898L408.524442 4.50974276C408.524442 3.32259957 408.910105 2.34322112 409.681442 1.57157805 410.452779.799934976 411.416936.414119227 412.573942.414119227 413.730948.414119227 414.695105.799934976 415.466442 1.57157805 416.237779 2.34322112 416.623442 3.32259957 416.623442 4.50974276L416.623442 62.2936486C416.623442 63.4214347 416.237779 64.371135 415.466442 65.1427781 414.695105 65.9144211 413.730948 66.3002369 412.573942 66.3002369 411.416936 66.3002369 410.452779 65.9144211 409.681442 65.1427781 408.910105 64.371135 408.524442 63.4214347 408.524442 62.2936486L408.524442 59.978731zM408.524442 33.8023545C404.489755 29.3505676 399.802469 27.1247075 394.462442 27.1247075 387.698408 27.1247075 383.218786 30.1518772 381.023442 36.2063075 380.252105 38.2244509 379.866442 40.5393454 379.866442 43.1510604 379.866442 48.2557761 381.260761 52.2623243 384.049442 55.1708251 386.600788 57.8418973 390.071753 59.1774133 394.462442 59.1774133 399.802469 59.1774133 404.489755 56.9515533 408.524442 52.4997663L408.524442 33.8023545zM200.959326 21.1386345C201.730663 20.3669914 202.69482 19.9811757 203.851826 19.9811757 205.008831 19.9811757 205.972988 20.3669914 206.744326 21.1386345 207.515663 21.9102776 207.901326 22.889656 207.901326 24.0767992L207.901326 62.2729404C207.901326 63.4007264 207.515663 64.3504267 206.744326 65.1220698 205.972988 65.8937129 205.008831 66.2795286 203.851826 66.2795286 202.69482 66.2795286 201.730663 65.8937129 200.959326 65.1220698 200.187988 64.3504267 199.802326 63.4007264 199.802326 62.2729404L199.802326 24.0767992C199.802326 22.889656 200.187988 21.9102776 200.959326 21.1386345zM208.716814 6.01505882C208.716814 7.26155917 208.271818 8.32997202 207.381814 9.22032941 206.491809 10.1106868 205.42382 10.5558588 204.177814 10.5558588L203.643814 10.5558588C202.397808 10.5558588 201.329818 10.1106868 200.439814 9.22032941 199.549809 8.32997202 199.104814 7.26155917 199.104814 6.01505882L199.104814 5.65891765C199.104814 4.4124173 199.549809 3.34400445 200.439814 2.45364706 201.329818 1.56328967 202.397808 1.11811765 203.643814 1.11811765L204.177814 1.11811765C205.42382 1.11811765 206.491809 1.56328967 207.381814 2.45364706 208.271818 3.34400445 208.716814 4.4124173 208.716814 5.65891765L208.716814 6.01505882zM74.3315581 26.3986103C78.7222468 21.8923949 83.795196 19.639321 89.5505581 19.639321 95.3059202 19.639321 100.230538 21.6848749 104.324558 25.7760442 108.833914 30.2822597 111.088558 36.0928187 111.088558 43.2078958 111.088558 50.4415574 108.833914 56.2817622 104.324558 60.7286854 100.171204 64.7605623 95.2317534 66.7764706 89.5060581 66.7764706 83.7803628 66.7764706 78.7222468 64.5233967 74.3315581 60.0171812L74.3315581 62.3295697C74.3315581 63.4561235 73.9458953 64.4047862 73.1745581 65.1755863 72.4032209 65.9463863 71.4390639 66.3317805 70.2820581 66.3317805 69.1250524 66.3317805 68.1608953 65.9463863 67.3895581 65.1755863 66.6182209 64.4047862 66.2325581 63.4561235 66.2325581 62.3295697L66.2325581 4.60879589C66.2325581 3.42294972 66.6182209 2.44464131 67.3895581 1.67384129 68.1608953.903041284 69.1250524.517647059 70.2820581.517647059 71.4390639.517647059 72.4032209.903041284 73.1745581 1.67384129 73.9458953 2.44464131 74.3315581 3.42294972 74.3315581 4.60879589L74.3315581 26.3986103zM74.3315581 52.5463877C78.366245 56.9933108 83.0535314 59.216739 88.3935581 59.216739 95.157592 59.216739 99.6668802 56.1928767 101.921558 50.1450612 102.633562 48.1291227 102.989558 45.8167574 102.989558 43.2078958 102.989558 38.1087572 101.624905 34.1065864 98.8955581 31.2012633 96.2848784 28.5331094 92.7842468 27.1990525 88.3935581 27.1990525 83.0535314 27.1990525 78.366245 29.4224807 74.3315581 33.8694039L74.3315581 52.5463877zM606.878522 1.16400636C607.650253.38799824 608.614903 0 609.7725 0 610.930097 0 611.894747.38799824 612.666478 1.16400636 613.43821 1.94001448 613.82407 2.92493309 613.82407 4.11879173L613.82407 62.2295707C613.82407 63.3637365 613.43821 64.3188091 612.666478 65.0948172 611.894747 65.8708253 610.930097 66.2588235 609.7725 66.2588235 608.614903 66.2588235 607.650253 65.8708253 606.878522 65.0948172 606.10679 64.3188091 605.72093 63.3637365 605.72093 62.2295707L605.72093 4.11879173C605.72093 2.92493309 606.10679 1.94001448 606.878522 1.16400636zM22.3402715 22.7205631C27.3245498 20.5837054 32.4867607 19.5152925 37.8270589 19.5152925 43.8793969 19.5152925 48.5669217 21.3553369 51.8897739 25.0354808 54.8566062 28.2407674 56.3400002 32.2473156 56.3400002 37.0552455L56.3400002 62.2522337C56.3400002 63.3800197 55.9394838 64.3297201 55.1384391 65.1013631 54.3373943 65.8730062 53.3731883 66.2588219 52.245792 66.2588219 51.1183957 66.2588219 50.1690236 65.8730062 49.3976472 65.1013631 48.6262708 64.3297201 48.2405884 63.3800197 48.2405884 62.2522337L48.2405884 59.9373161C46.6384989 61.5993165 44.4875777 63.1425795 41.7877603 64.5671514 39.0879428 65.9917232 35.6613029 66.7039984 31.5077376 66.7039984 27.413509 66.7039984 24.001703 65.516873 21.2722172 63.1425867 18.4240582 60.649586 17 57.3849912 17 53.3487043 17 48.9562745 18.6614012 45.5136109 21.9842534 43.0206102 25.6037889 40.2901808 30.7659997 38.9249867 37.4710408 38.9249867L48.2405884 38.9249867 48.2405884 38.2127043C48.2405884 34.2357746 47.2615484 31.4015128 45.303439 29.7098337 43.3453297 28.0181547 40.348874 27.1723278 36.313982 27.1723278 32.8724565 27.1723278 28.9266286 27.8846031 24.4763801 29.3091749 24.0016869 29.4278892 23.4676651 29.4872455 22.8742987 29.4872455 22.2809322 29.4872455 21.6579068 29.1756251 21.0052036 28.5523749 20.3525005 27.9291247 20.0261539 26.9645853 20.0261539 25.6587278 20.0261539 24.3528703 20.7975187 23.3734919 22.3402715 22.7205631zM25.0994118 52.4583514C25.0994118 57.2069241 28.2442069 59.5811749 34.5338915 59.5811749 37.3227139 59.5811749 39.9186532 58.8985778 42.3217874 57.5333631 44.7249216 56.1681485 46.6978355 54.6248855 48.2405884 52.9035278L48.2405884 45.4245631 38.5390951 45.4245631C34.3261932 45.4245631 31.0330587 45.9587695 28.6595928 47.0271984 26.2861269 48.0956273 25.0994118 49.9059935 25.0994118 52.4583514zM1.15759135 1.16400636C1.92932278.38799824 2.89397259 0 4.05156973 0 5.20916687 0 6.17381668.38799824 6.94554811 1.16400636 7.71727953 1.94001448 8.10313946 2.92493309 8.10313946 4.11879173L8.10313946 62.2295707C8.10313946 63.3637365 7.71727953 64.3188091 6.94554811 65.0948172 6.17381668 65.8708253 5.20916687 66.2588235 4.05156973 66.2588235 2.89397259 66.2588235 1.92932278 65.8708253 1.15759135 65.0948172.385859925 64.3188091 0 63.3637365 0 62.2295707L0 4.11879173C0 2.92493309.385859925 1.94001448 1.15759135 1.16400636z"/>
      <path fill="#FA4132" d="M362.647541,57.7983066 C363.549185,58.7305147 364,59.8463227 364,61.1457642 L364,61.6542388 C364,62.9536803 363.549185,64.0694884 362.647541,65.0016964 C361.745897,65.9339045 360.666673,66.4000015 359.409836,66.4000015 L358.590164,66.4000015 C357.333327,66.4000015 356.254103,65.9339045 355.352459,65.0016964 C354.450815,64.0694884 354,62.9536803 354,61.6542388 L354,61.1457642 C354,59.8463227 354.450815,58.7305147 355.352459,57.7983066 C356.254103,56.8660986 357.333327,56.4000015 358.590164,56.4000015 L359.409836,56.4000015 C360.666673,56.4000015 361.745897,56.8660986 362.647541,57.7983066 Z"/>
    </g>
    <g fill="#FA4132">
      <path fill-rule="nonzero" d="M4.21818359,109.634509 C2.97121783,108.384831 2.97121783,106.358703 4.21818359,105.109026 C5.46514934,103.859348 7.4868803,103.859348 8.73384606,105.109026 C30.7995944,127.222764 67.1907515,127.222764 89.2564999,105.109026 C111.969529,82.3465985 112.19199,45.8747734 90.0157706,23.6503243 C67.1907515,0.775664124 30.7995944,0.775664124 7.97457538,23.6503243 C6.72760962,24.9000021 4.70587866,24.9000021 3.4589129,23.6503243 C2.21194714,22.4006466 2.21194714,20.3745187 3.4589129,19.1248409 C28.7778634,-6.24917474 69.2124825,-6.24917474 94.531433,19.1248409 C119.214025,43.861114 118.966849,84.3850274 93.7721623,109.634509 C69.2124825,134.247603 28.7778634,134.247603 4.21818359,109.634509 Z"/>
      <path fill-rule="nonzero" d="M.1554109 73.1449173C-.120797151 71.4142086 1.05526391 69.7867941 2.78221681 69.5099853 4.5091697 69.2331765 6.13305249 70.4117954 6.40926055 72.1425041 9.74567618 93.0483531 27.9365019 108.651761 49.4359791 108.651761 73.5026501 108.651761 93.0045579 89.2290499 93.0045579 65.27986 93.0045579 63.5271547 94.4223229 62.1063063 96.1712246 62.1063063 97.9201263 62.1063063 99.3378913 63.5271547 99.3378913 65.27986 99.3378913 92.7433596 76.9916348 114.998868 49.4359791 114.998868 24.8199494 114.998868 3.98249614 97.1252828.1554109 73.1449173zM49.7149129 13.0359239C51.4638147 13.0359239 52.8815796 14.4567723 52.8815796 16.2094776 52.8815796 17.962183 51.4638147 19.3830314 49.7149129 19.3830314 27.8074927 19.3830314 9.37081839 35.4052921 6.40659462 56.6398404 6.16428646 58.375642 4.5637654 59.5859304 2.83173078 59.3430952 1.09969615 59.1002601-.107965762 57.4962581.134342393 55.7604566 3.53678288 31.3866939 24.6528523 13.0359239 49.7149129 13.0359239z"/>
      <ellipse cx="61.107" cy="17.926" rx="3.167" ry="3.174"/>
      <ellipse cx="38.111" cy="95.207" rx="3.167" ry="3.174"/>
      <path fill-rule="nonzero" d="M48.9444444,101.049587 C47.1955427,101.049587 45.7777778,99.6287384 45.7777778,97.8760331 C45.7777778,96.1233277 47.1955427,94.7024793 48.9444444,94.7024793 C65.8504943,94.7024793 79.5555556,80.9676115 79.5555556,64.0247934 C79.5555556,47.0819753 65.8504943,33.3471074 48.9444444,33.3471074 C32.0383946,33.3471074 18.3333333,47.0819753 18.3333333,64.0247934 C18.3333333,65.7774987 16.9155684,67.1983471 15.1666667,67.1983471 C13.417765,67.1983471 12,65.7774987 12,64.0247934 C12,43.5765646 28.5405912,27 48.9444444,27 C69.3482977,27 85.8888889,43.5765646 85.8888889,64.0247934 C85.8888889,84.4730221 69.3482977,101.049587 48.9444444,101.049587 Z"/>
      <path fill-rule="nonzero" d="M32.8930668,48.7569627 C34.1029821,47.5480504 36.0646422,47.5480504 37.2745575,48.7569627 C38.4844727,49.965875 38.4844727,51.9259092 37.2745575,53.1348215 C30.8216763,59.5823539 30.8216763,70.0358693 37.2745575,76.4834017 C43.7274386,82.9309341 54.1896262,82.9309341 60.6425074,76.4834017 C67.0953886,70.0358693 67.0953886,59.5823539 60.6425074,53.1348215 C59.4325922,51.9259092 59.4325922,49.965875 60.6425074,48.7569627 C61.8524226,47.5480504 63.8140828,47.5480504 65.023998,48.7569627 C73.8967096,57.6223197 73.8967096,71.9959035 65.023998,80.8612605 C56.1512864,89.7266176 41.7657785,89.7266176 32.8930668,80.8612605 C24.0203552,71.9959035 24.0203552,57.6223197 32.8930668,48.7569627 Z"/>
      <path fill-rule="nonzero" d="M48.116386,75.1095792 C46.3677407,75.0795816 44.9744487,73.6346238 45.0043812,71.8821754 C45.0343137,70.1297271 46.4761358,68.7334049 48.2247811,68.7634024 C49.3596719,68.7828712 50.4498495,68.3509209 51.2685303,67.5304596 C52.9091647,65.8862571 52.9096424,63.2216104 51.270402,61.5788048 C50.4516631,60.7582853 49.3607016,60.3269298 48.2248112,60.3478315 C46.4762045,60.380008 45.0326512,58.9854835 45.0005446,57.2330738 C44.968438,55.4806641 46.3599363,54.0339713 48.108543,54.0017948 C50.9468233,53.949567 53.7010273,55.0385524 55.7487442,57.0907228 C59.8616651,61.2125887 59.8604668,67.8960007 55.7468725,72.0185415 C53.7013076,74.0685552 50.9511841,75.1582093 48.116386,75.1095792 Z"/>
    </g>
  </g>
</svg>
